<?xml version="1.0" encoding="utf-8"?><svg xmlns="http://www.w3.org/2000/svg" xmlns:xlink="http://www.w3.org/1999/xlink"><symbol viewBox="0 0 2300 2300" id="alert" xmlns="http://www.w3.org/2000/svg"><path d="M390.2 2104.4h1530v-100h-1530v100zm410-1910l-770 1320 90 50 770-1320-90-50zm-500 1610h1710l-880-1510-830 1510zm1530-100h-1370l670-1210 700 1210zm-330-1510l-90 50 770 1330 90-50-770-1330z"/></symbol><symbol viewBox="0 0 15 15" id="alert--s" xmlns="http://www.w3.org/2000/svg"><path d="M4.5 2.6L.6 9.7l.9.5 3.9-7.1-.9-.5zM3 11h9L7.4 3 3 11zm7.3-1H4.7l2.7-5 2.9 5zM3 13h8.9v-1H3v1zm7.5-10.4l-.9.5 3.9 7.1.9-.5-3.9-7.1z"/></symbol><symbol viewBox="0 0 15 15" id="alert-fill--s" xmlns="http://www.w3.org/2000/svg"><path d="M4.5 2.6L.6 9.7l.9.5 3.9-7.1-.9-.5zM3 13h8.9v-1H3v1zm0-2h9L7.4 3 3 11zm7.5-8.4l-.9.5 3.9 7.1.9-.5-3.9-7.1z"/></symbol><symbol viewBox="0 0 1500 1500" id="angle-double-down--s" xmlns="http://www.w3.org/2000/svg"><path d="M1440.4 244.9l-60-80-630 540-630-530-60 70 690 590 690-590zm-690 960l-630-530-60 70 690 590 690-590-60-80-630 540z"/></symbol><symbol viewBox="0 0 1500 1500" id="angle-double-left--s" xmlns="http://www.w3.org/2000/svg"><path d="M1240.5 220.5l-80-60-500 590 500 590 80-60-450-530 450-530zm-400 0l-80-60-500 590 500 590 80-60-450-530 450-530z"/></symbol><symbol viewBox="0 0 1500 1500" id="angle-double-right--s" xmlns="http://www.w3.org/2000/svg"><path d="M339.5 159.5l-80 60 450 530-450 530 80 60 500-590-500-590zm400 0l-80 60 450 530-450 530 80 60 500-590-500-590z"/></symbol><symbol viewBox="0 0 1500 1500" id="angle-double-up--s" xmlns="http://www.w3.org/2000/svg"><path d="M60.4 1254.8l60 80 630-530 630 530 60-80-690-590-690 590zm690-960l630 530 60-80-690-580-690 590 60 80 630-540z"/></symbol><symbol viewBox="0 0 1500 1500" id="angle-down--s" xmlns="http://www.w3.org/2000/svg"><path d="M1370.4 420l-620 530-630-530-60 70 690 590 690-590z"/></symbol><symbol viewBox="0 0 1500 1500" id="angle-left--s" xmlns="http://www.w3.org/2000/svg"><path d="M1040.5 220.5l-80-60-500 590 500 590 80-60-450-530z"/></symbol><symbol viewBox="0 0 1500 1500" id="angle-right--s" xmlns="http://www.w3.org/2000/svg"><path d="M540.5 160.5l-80 60 450 530-450 530 80 60 500-590z"/></symbol><symbol viewBox="0 0 1500 1500" id="angle-up--s" xmlns="http://www.w3.org/2000/svg"><path d="M750.4 419.7l-690 590 60 70 630-530 620 530 70-70z"/></symbol><symbol viewBox="0 0 2300 2300" id="bell" xmlns="http://www.w3.org/2000/svg"><path d="M1143 2024.1c-83.4 0-151.4-51.5-151.4-151.5h-100c0 100 112.8 251.5 251.5 251.5s251.5-151.5 251.5-251.5h-100c0 100-68 151.5-151.6 151.5zm797.1-432.3l-82.4-85.5c-37.3-37.3-70-122.8-70-181.4 0-312.4 60.8-685.7-166-936.7-118.6-131.2-294.2-212.7-471.5-212.7-181.7 0-360.8 84.5-479.8 221.3-218.1 250.8-157.7 618.2-157.7 926.5 0 58.6-32.7 142.6-70 179.9l-82.4 82.4c-50 50-43.8 102.5-35.6 122.1 8 19.8 32.2 64.9 102.9 64.9h1445.1c70.6 0 94.9-45.1 103-64.8 8.1-19.6 14.4-66.1-35.6-116zm-1513.2 80.8c.1 0 .3-9.9.4-10.1l82.5-87.2c54.8-54.9 97.8-165.8 97.8-249.5 0-55.1-1.9-113.2-3.8-171.1-8.4-253.5-17.1-516.2 138.3-694.8 102.7-118.1 255.3-189.2 408.1-189.2 148.9 0 298.8 67.5 401 180.6 162.1 179.3 153.5 445.9 145.2 703.6-1.9 57.4-3.7 113.8-3.7 168.5 0 83.7 43 192.2 97.8 247.1l82.5 92.1c.1.1.3 10 .4 10H426.9z"/></symbol><symbol viewBox="0 0 1500 1500" id="bell--s" xmlns="http://www.w3.org/2000/svg"><path d="M1373.7 1112.3l-65-59.7c-29.4-29.4-55.2-93.1-55.2-139.3 0-246.5 48-539.1-131-737.1C1028.8 72.7 890.3 10.4 750.4 10.4c-143.3 0-284.7 66.7-378.5 174.6-172.1 197.9-124.5 487.7-124.5 731 0 46.2-25.8 112.5-55.2 141.9l-65 65c-39.4 39.4-34.5 50.1-28.1 65.6 6.4 15.5 25.5 20.3 81.3 20.3h1140.1c55.7 0 74.9-4.8 81.3-20.3 6.4-15.5 11.3-36.8-28.1-76.2zm-1133.5-3.5s107.2-130.5 107.2-203.5c0-43.7-1.5-83.6-3-129.5-6.5-195.2-13.2-394.3 102.9-527.8 76.4-87.8 189.7-137.6 303.1-137.6 110.5 0 221.8 50.2 297.8 134.2 121.2 134 114.5 339.2 108.1 537.6-1.5 45.5-2.9 90.4-2.9 133.8 0 73 107.2 192.8 107.2 192.8H240.2zm512.5 281.6c-45 0-81.6-81.6-81.6-81.6h-100c0 100 81.4 181.6 181.6 181.6 100.1 0 181.5-81.6 181.5-181.6h-100s-36.5 81.6-81.5 81.6z"/></symbol><symbol viewBox="0 0 2300 2300" id="bell-padless" xmlns="http://www.w3.org/2000/svg"><path d="M2065.9 1664.8l-95.5-98.4c-43.2-43.2-81.1-142-81.1-209.9 0-362.1 70.5-794.5-192.4-1085.3-137.5-152.1-341-246.3-546.4-246.3-210.6 0-418.2 98-556 256.5C341.7 572 411.6 997.8 411.6 1355.1c0 67.9-37.9 165.2-81.1 208.5l-95.5 95.5c-57.9 57.9-50.7 93-41.3 115.8 9.5 22.8 37.5 49.3 119.4 49.3h1674.7c81.9 0 110-26.5 119.4-49.3 9.4-22.8 16.7-52.2-41.3-110.1zm-78.1 59.4H313.1c-14.1 0-22.9 12.2-27.9 10.6 2.4-4.7 7.4-5.1 17.4-15.1l95.6-92.1c61.2-61.2 109.1-180.7 109.1-274.3 0-64.2-2.2-130.5-4.4-195.5-9.9-296.6-20-602.9 163.7-814.2 121.8-140 302.6-223.5 483.9-223.5 176.6 0 354.3 80.2 475.5 214.2 191.8 212.2 181.7 524.2 172 825.8-2.1 66.3-4.2 131.7-4.2 194.9 0 93.6 47.9 214.8 109.1 276.1l95.6 95.6c9.9 9.9 14.9 3.4 17.3 8.1-5.1 1.6-13.9-10.6-28-10.6zm-835.1 451.5c-83.5 0-151.5-51.5-151.5-151.5h-100c0 100 112.8 251.5 251.5 251.5s251.6-151.5 251.6-251.5h-100c0 100-68 151.5-151.6 151.5z"/></symbol><symbol viewBox="0 0 2300 2300" id="bookmark" xmlns="http://www.w3.org/2000/svg"><path d="M1750 2060.1l-590-380-610 380v-1500c0-180 140-320 320-320h880v1820zm-880-1720c-120 0-220 100-220 220v1320l510-320 490 320v-1540H870z"/></symbol><symbol viewBox="0 0 15 15" id="bookmark--s" xmlns="http://www.w3.org/2000/svg"><path d="M5.5 0C4.1 0 3 1.2 3 2.7v12.2l4.7-3.1 4.5 3.2V0H5.5zm5.7 13l-3.5-2.4L4 13.1V2.7C4 1.8 4.7 1 5.5 1h5.7v12z"/></symbol><symbol viewBox="0 0 2300 2300" id="bookmark-fill" xmlns="http://www.w3.org/2000/svg"><path d="M870 240.1c-180 0-320 140-320 320v1500l610-380 590 380v-1820H870z"/></symbol><symbol viewBox="0 0 15 15" id="bookmark-fill--s" xmlns="http://www.w3.org/2000/svg"><path d="M5.5 0C4.1 0 3 1.2 3 2.7V15l4.6-3.2 4.5 3.2V0H5.5z"/></symbol><symbol viewBox="0 0 2300 2300" id="bullhorn-padless" xmlns="http://www.w3.org/2000/svg"><path d="M794.5 2094.6h400s100 0 100-100v-200l910 300c20 10 50 0 70-10s30-40 30-60v-1750c0-20-10-50-30-60-30-10-50-20-80-10l-1800 590v-20c0-40-30-80-70-80h-260c-20 0-40 10-50 20-10 20-20 40-20 60v740c0 20 10 40 20 50l10 10c10 10 30 20 40 20h260c40 0 70-30 70-70v-30l400 130v370m-700-500v-700h200v700h-200zm800 500v-340l300 110v230h-300zM2194.6 294.5v1700l-1800-600v-500l1800-600zM794.5 1794.6v200c0 100 90 100 100 100"/></symbol><symbol viewBox="0 0 23 23" id="caret-circle-down" xmlns="http://www.w3.org/2000/svg"><path d="M11.5 15L7.2 8l-.8.7 5.1 8.2 5.1-8.2-.7-.6-4.4 6.9zm0-13C6.3 2 2 6.3 2 11.5S6.3 21 11.5 21s9.5-4.3 9.5-9.5S16.7 2 11.5 2zm0 18C6.8 20 3 16.2 3 11.5S6.8 3 11.5 3 20 6.8 20 11.5 16.2 20 11.5 20z"/></symbol><symbol viewBox="0 0 1500 1500" id="caret-circle-down--s" xmlns="http://www.w3.org/2000/svg"><path d="M752.5 2.5c-410 0-750 340-750 750s340 750 750 750 750-340 750-750-340-750-750-750zm0 1400c-360 0-650-290-650-650s290-650 650-650 650 290 650 650-290 650-650 650zm-20-490l-290-440-80 60 370 560 380-560-80-60-300 440z"/></symbol><symbol viewBox="0 0 23 23" id="caret-circle-left" xmlns="http://www.w3.org/2000/svg"><path d="M8 11.5l7-4.3-.6-.7-8.2 5.1 8.2 5.1.6-.7-7-4.5zm13 0C21 6.3 16.7 2 11.5 2S2 6.3 2 11.5 6.3 21 11.5 21s9.5-4.3 9.5-9.5zm-18 0C3 6.8 6.8 3 11.5 3S20 6.8 20 11.5 16.2 20 11.5 20 3 16.2 3 11.5z"/></symbol><symbol viewBox="0 0 15 15" id="caret-circle-left--s" xmlns="http://www.w3.org/2000/svg"><path d="M9.7 3.8L4.1 7.5l5.6 3.7.6-.8-4.4-2.9 4.4-2.9-.6-.8zM7.5 0C3.4 0 0 3.4 0 7.5S3.4 15 7.5 15 15 11.6 15 7.5 11.6 0 7.5 0zm0 14C3.9 14 1 11.1 1 7.5S3.9 1 7.5 1 14 3.9 14 7.5 11.1 14 7.5 14z"/></symbol><symbol viewBox="0 0 23 23" id="caret-circle-right" xmlns="http://www.w3.org/2000/svg"><path d="M8.1 15.8l.6.7 8.2-5.1-8.2-5-.6.8 7 4.3-7 4.3zm3.4 5.2c5.2 0 9.5-4.3 9.5-9.5S16.7 2 11.5 2 2 6.3 2 11.5 6.3 21 11.5 21zm0-1C6.8 20 3 16.2 3 11.5S6.8 3 11.5 3 20 6.8 20 11.5 16.2 20 11.5 20z"/></symbol><symbol viewBox="0 0 15 15" id="caret-circle-right--s" xmlns="http://www.w3.org/2000/svg"><path d="M4.7 4.6l4.4 2.9-4.4 2.9.6.8 5.6-3.7-5.6-3.7-.6.8zM7.5 0C3.4 0 0 3.4 0 7.5S3.4 15 7.5 15 15 11.6 15 7.5 11.6 0 7.5 0zm0 14C3.9 14 1 11.1 1 7.5S3.9 1 7.5 1 14 3.9 14 7.5 11.1 14 7.5 14z"/></symbol><symbol viewBox="0 0 23 23" id="caret-circle-up" xmlns="http://www.w3.org/2000/svg"><path d="M11.5 2C6.262 2 2 6.262 2 11.5S6.262 21 11.5 21s9.5-4.262 9.5-9.5S16.738 2 11.5 2zm0 18C6.813 20 3 16.187 3 11.5 3 6.813 6.813 3 11.5 3c4.687 0 8.5 3.813 8.5 8.5 0 4.687-3.813 8.5-8.5 8.5zm-5.118-5.005l.849.529 4.261-6.842 4.278 6.845.848-.529-5.128-8.205-5.108 8.202z"/></symbol><symbol viewBox="0 0 15 15" id="caret-circle-up--s" xmlns="http://www.w3.org/2000/svg"><path d="M3.584 9.723l.832.555 2.917-4.376 2.917 4.376.832-.555-3.75-5.624-3.748 5.624zM7.5 0C3.364 0 0 3.364 0 7.5S3.364 15 7.5 15 15 11.636 15 7.5 11.636 0 7.5 0zm0 14C3.916 14 1 11.084 1 7.5S3.916 1 7.5 1 14 3.916 14 7.5 11.084 14 7.5 14z"/></symbol><symbol viewBox="0 0 2300 2300" id="caret-down" xmlns="http://www.w3.org/2000/svg"><path d="M340.5 490.5l-80 60 910 1260 870-1260-80-60-790 1140z"/></symbol><symbol viewBox="0 0 1500 1500" id="caret-down--s" xmlns="http://www.w3.org/2000/svg"><path d="M1179.5 310.5l-430 690-430-690-80 60 510 820 510-820z"/></symbol><symbol viewBox="0 0 2300 2300" id="caret-left" xmlns="http://www.w3.org/2000/svg"><path d="M1809.5 339.5l-60-80-1260 910 1260 870 60-80-1140-790z"/></symbol><symbol viewBox="0 0 1500 1500" id="caret-left--s" xmlns="http://www.w3.org/2000/svg"><path d="M495.5 744.9l690-420.1-60.1-89.9-810 510 810 519.9 60.1-90z"/></symbol><symbol viewBox="0 0 2300 2300" id="caret-right" xmlns="http://www.w3.org/2000/svg"><path d="M549.5 259.5l-60 80 1140 790-1140 830 60 80 1260-910z"/></symbol><symbol viewBox="0 0 1500 1500" id="caret-right--s" xmlns="http://www.w3.org/2000/svg"><path d="M370.1 234.9l-60 89.9 690 430.1-690 419.9 60 90 820-509.9z"/></symbol><symbol viewBox="0 0 2300 2300" id="caret-up" xmlns="http://www.w3.org/2000/svg"><path d="M1960.5 1810.5l80-60-910-1260-870 1260 80 60 790-1140z"/></symbol><symbol viewBox="0 0 1500 1500" id="caret-up--s" xmlns="http://www.w3.org/2000/svg"><path d="M750.3 314.6l-510 810 90 59.9 420-689.9 430 689.9 80-59.9z"/></symbol><symbol viewBox="0 0 23 23" id="chat-bubble" xmlns="http://www.w3.org/2000/svg"><path d="M5.8 20.9l-.5-.9 5.1-3.1h8.1c.8 0 1.5-.7 1.5-1.5v-11c0-.7-.7-1.4-1.5-1.4h-14C3.7 3 3 3.7 3 4.5v11c0 .8.7 1.5 1.5 1.5h1v1h-1C3.1 18 2 16.9 2 15.5v-11C2 3.1 3.1 2 4.5 2h14C19.9 2 21 3.1 21 4.5v11c0 1.4-1.1 2.5-2.5 2.5h-7.9l-4.8 2.9zM12 12H6v1h6v-1zm4-3H6v1h10V9zm0-3H6v1h10V6z"/></symbol><symbol viewBox="0 0 15 15" id="chat-bubble--s" xmlns="http://www.w3.org/2000/svg"><path d="M4 4h7v1H4zm0 2h7v1H4zm0 2h4v1H4z"/><path d="M3.721 13.831L7.382 12H13V2H2v10h1.5v1H1V1h13v12H7.618l-3.894 1.947"/></symbol><symbol viewBox="0 0 28 28" id="check" xmlns="http://www.w3.org/2000/svg"><path d="M23.529 3.724l-12.32 17.733-6.906-6.72-1.307 1.307 8.4 8.214L25.022 4.657z"/></symbol><symbol viewBox="0 0 1500 1500" id="check--s" xmlns="http://www.w3.org/2000/svg"><path d="M1260.5 199.5l-660 950-370-360-70 70 450 440 730-1050z"/></symbol><symbol viewBox="0 0 2300 2300" id="clock" xmlns="http://www.w3.org/2000/svg"><path d="M1189.6 1120.3h-400v100h500v-600h-100v500zm-40-970c-550 0-1000 450-1000 1000s450 1000 1000 1000 1000-450 1000-1000-450-1000-1000-1000zm0 1900c-500 0-900-400-900-900s400-900 900-900 900 400 900 900-400 900-900 900z"/></symbol><symbol viewBox="0 0 15 15" id="clock--s" xmlns="http://www.w3.org/2000/svg"><path d="M7 7H5.062v1H8V4.062H7V7zm.5-7C3.364 0 0 3.364 0 7.5S3.364 15 7.5 15 15 11.636 15 7.5 11.636 0 7.5 0zm0 14C3.916 14 1 11.084 1 7.5S3.916 1 7.5 1 14 3.916 14 7.5 11.084 14 7.5 14z"/></symbol><symbol viewBox="0 0 2300 2300" id="clock-back" xmlns="http://www.w3.org/2000/svg"><path d="M799.5 994.6v100h500v-600h-100v500h-400zm350-980c-550 0-1000 450-1000 1000 0 500 370 920 870 990v280l500-400-500-400v430c-440-70-770-440-770-890 0-500 400-900 900-900s900 400 900 900c0 290-140 570-380 730l60 80c260-190 420-490 420-820 0-550-450-1000-1000-1000zm-30 1670l240 200-240 200v-400z"/></symbol><symbol viewBox="400 -400 2300 2300" id="collapse" xmlns="http://www.w3.org/2000/svg"><path d="M1600.5-369.5v1070h1070l-1070-1070zm100 240l730 730h-730v-730zm-200 2000v-1070h-1070l1070 1070zm-100-240l-730-730h730v730z"/></symbol><symbol viewBox="400 -400 2300 2300" id="create-padless" xmlns="http://www.w3.org/2000/svg"><path d="M2399.5 795.5v1000h-1700v-2100h900v-100h-1000v2300h1900v-1100h-100zm-1350 430l630-250 770-760-70-70-680 680-280-280 780-780-70-70-870 850-210 680zm560-340l-400 160 130-430 270 270z"/></symbol><symbol viewBox="400 -400 2300 2300" id="crosshair" xmlns="http://www.w3.org/2000/svg"><path d="M1500.5 1000.5h-200v-200h-100v300h300v-100zm-900-200h500v-100h-500v100zm900 0h100v-100h-100v100zm100-1000h-100v500h100v-500zm-300 700h200v-100h-300v300h100v-200zm200 1200h100v-500h-100v500zm500-1000v100h500v-100h-500zm-400-200h200v200h100v-300h-300v100zm200 500h-200v100h300v-300h-100v200z"/></symbol><symbol viewBox="0 0 23 23" id="cursor" xmlns="http://www.w3.org/2000/svg"><path d="M14.318 11.743l3.857-3.819L2.722 2.709 7.714 18.28l3.682-3.646 6.343 6.343 2.906-2.907-6.327-6.327zM11.4 13.225l-3.231 3.198L4.278 4.291 16.32 8.354l-3.42 3.385 6.331 6.331-1.492 1.493-6.339-6.338z"/></symbol><symbol viewBox="0 0 23 23" id="dash-horizontal" xmlns="http://www.w3.org/2000/svg"><path d="M4 10h15v3H4z"/></symbol><symbol viewBox="0 0 23 23" id="dash-vertical" xmlns="http://www.w3.org/2000/svg"><path d="M10 4h3v15h-3z"/></symbol><symbol viewBox="400 -400 2300 2300" id="document" xmlns="http://www.w3.org/2000/svg"><path d="M1502.5 152h-400v100h400V152zm100 290h-500v110h500V442zm-500 710h900v-100h-900v100zm670-1300h-970v1800h1500V382l-530-530zm30 170l330 330h-330V22zm400 1530h-1300V-48h800v500h500v1100zm-1100-700h900V752h-900v100z"/></symbol><symbol viewBox="0 0 15 15" id="document--s" xmlns="http://www.w3.org/2000/svg"><path d="M4 9h7V8H4v1zm4.707-9H1v15h13V5.293L8.707 0zM9 1.707L12.293 5H9V1.707zM13 14H2V1h6v5h5v8zm-9-2h7v-1H4v1z"/></symbol><symbol viewBox="0 0 23 23" id="download" xmlns="http://www.w3.org/2000/svg"><path d="M17.9 10.8l-.8-.6-5.1 6V2h-1v14.1l-5.1-6-.8.6 6.4 7.4c0 .2 6.4-7.3 6.4-7.3zM2 20v1h19v-1H2z"/></symbol><symbol viewBox="0 0 15 15" id="download--s" xmlns="http://www.w3.org/2000/svg"><path d="M11.9 7.1l-.8-.7L8 10.1V1H7v9.1L3.8 6.4l-.7.7 4.4 5.2 4.4-5.2zM1 13v1h13v-1H1z"/></symbol><symbol viewBox="0 0 2300 2300" id="download-cloud" xmlns="http://www.w3.org/2000/svg"><path d="M2024.5 894.7h-10v-10c10-40 20-80 20-120 0-260-210-460-460-460-80 0-160 20-240 70l-10 10-10-10c-100-160-280-260-470-260-310 0-560 250-560 560 0 30 0 70 10 100v10h-10c-130 30-230 160-230 290 0 170 140 300 300 300h440v-80h-440c-130 0-230-100-230-230 0-100 70-200 170-220l80-20-10-80c-10-30-10-60-10-90 0-270 220-480 480-480 170 0 320 90 410 230l50 70 70-40c60-40 130-50 200-50 210 0 390 170 390 390 0 30 0 70-10 100l-30 100 100 10c80 10 150 80 150 160 0 90-70 160-160 160h-500v80h500c130 0 240-110 240-240-9.9-130.1-99.9-230.1-220-250zm-829.9 290h-100v500h-360l410 500 410-500h-360v-500zm150 579.9l-200 240-200-240h400z"/></symbol><symbol viewBox="400 -400 2300 2300" id="ellipsis-circle" xmlns="http://www.w3.org/2000/svg"><path d="M1550.5 600.5c-82.8 0-150 67.2-150 150s67.2 150 150 150 150-67.2 150-150-67.2-150-150-150zm-500 0c-82.8 0-150 67.2-150 150s67.2 150 150 150 150-67.2 150-150-67.2-150-150-150zm1000 0c-82.8 0-150 67.2-150 150s67.2 150 150 150 150-67.2 150-150-67.2-150-150-150zm-500-900c-570 0-1050 480-1050 1050s480 1050 1050 1050 1050-480 1050-1050-480-1050-1050-1050zm0 2000c-530 0-950-420-950-950s420-950 950-950 950 420 950 950-420 950-950 950z"/></symbol><symbol viewBox="0 0 1500 1500" id="ellipsis-circle--s" xmlns="http://www.w3.org/2000/svg"><path d="M698.5 798.5h100v-100h-100v100zm-300 0h100v-100h-100v100zm350-800c-410 0-750 340-750 750s340 750 750 750 750-340 750-750-340-750-750-750zm0 1400c-360 0-650-290-650-650s290-650 650-650 650 290 650 650-290 650-650 650zm250-600h100v-100h-100v100z"/></symbol><symbol viewBox="400 -400 2300 2300" id="ellipsis-horizontal" xmlns="http://www.w3.org/2000/svg"><path d="M1050.5 600.5c-82.8 0-150 67.2-150 150s67.2 150 150 150 150-67.2 150-150-67.2-150-150-150zm500 0c-82.8 0-150 67.2-150 150s67.2 150 150 150 150-67.2 150-150-67.2-150-150-150zm500 0c-82.8 0-150 67.2-150 150s67.2 150 150 150 150-67.2 150-150-67.2-150-150-150z"/></symbol><symbol viewBox="0 0 23 23" id="ellipsis-vertical" xmlns="http://www.w3.org/2000/svg"><circle cx="11.5" cy="16.5" r="1.5"/><circle cx="11.5" cy="11.5" r="1.5"/><circle cx="11.5" cy="6.5" r="1.5"/></symbol><symbol viewBox="0 0 23 23" id="envelope" xmlns="http://www.w3.org/2000/svg"><path d="M20.2 8.9l-.5-.9-8.2 5-8.2-5-.5.9 8.7 5.2z"/><path d="M1 5v14h21V5H1zm20 13H2V6h19v12z"/></symbol><symbol viewBox="0 0 15 15" id="envelope--s" xmlns="http://www.w3.org/2000/svg"><path d="M0 3v10h15V3H0zm14 9H1V4h13v8zm-.8-5.3l-.5-.9L7.5 9 2.2 5.8l-.5.9 5.8 3.4 5.7-3.4z"/></symbol><symbol viewBox="0 0 23 23" id="exclaim" xmlns="http://www.w3.org/2000/svg"><path d="M10 20h3v-3h-3v3zm0-17v12h3V3h-3z"/></symbol><symbol viewBox="0 0 1500 1500" id="exclaim--s" xmlns="http://www.w3.org/2000/svg"><path d="M644.6 264.8v630h210v-630h-210zm0 969.9h210v-210h-210v210z"/></symbol><symbol viewBox="0 0 2300 2300" id="exclaim-circle-fill" xmlns="http://www.w3.org/2000/svg"><path d="M1149.5 300.2c-470 0-850 380-850 850s380 850 850 850 850-380 850-850-380-850-850-850zm120 1400h-240v-240h240v240zm0-390h-240v-710h240v710z"/></symbol><symbol viewBox="0 0 1500 1500" id="exclaim-circle-fill--s" xmlns="http://www.w3.org/2000/svg"><path d="M750.1 0C340.1 0 .1 340 .1 750s340 750 750 750 750-340 750-750-330-750-750-750zm110 1240h-210v-210h210v210zm0-350h-210V260h210v630z"/></symbol><symbol viewBox="0 0 2300 2300" id="expand" xmlns="http://www.w3.org/2000/svg"><path d="M350 1999.5h1070L350 929.5v1070zm100-830l730 730H450v-730zm430-870l1070 1070v-1070H880zm970 830l-730-730h730v730z"/></symbol><symbol viewBox="0 0 1500 1500" id="expand--s" xmlns="http://www.w3.org/2000/svg"><path d="M500 150l850 860V150H500zm750 650L700 250h550v550zm-250 550L150 500v850h850zM250 710l550 540H250V710z"/></symbol><symbol viewBox="400 -400 2300 2300" id="eye" xmlns="http://www.w3.org/2000/svg"><path d="M1555.4 4.5c-520 0-1010 310-1150 720v50l20 20c140 400 620 700 1130 700s1000-310 1140-720v-60c-130-410-620-710-1140-710zm450 640.1c0 250-200 450-450 450s-450-200-450-450 200-450 450-450 450 200 450 450zm-450 750c-470 0-920-280-1040-650v-10c110-320 490-580 900-620-240 60-410 270-410 530 0 310 240 550 550 550 300 0 550-250 550-550 0-250-170-470-410-530 420 50 790 300 900 630-120 370-570 650-1040 650zm0-540.1c120 0 210-90 210-210s-90-210-210-210-210 90-210 210 90 210 210 210zm0-319.9c60 0 110 50 110 110s-50 110-110 110-110-50-110-110 50.1-110 110-110z"/></symbol><symbol viewBox="0 0 15 15" id="eye--s" xmlns="http://www.w3.org/2000/svg"><path d="M14.943 6.785c-.903-2.707-4.032-4.671-7.44-4.671C4.07 2.114.938 4.096.055 6.827l-.05.346.052.156C.96 10.035 4.087 12 7.491 12h.006c3.432 0 6.563-1.982 7.446-4.711l.083-.251-.083-.253zM7.5 3.75a2.69 2.69 0 0 1 2.682 2.693c0 1.473-1.203 2.67-2.682 2.67S4.818 7.91 4.818 6.431A2.685 2.685 0 0 1 7.5 3.75zM7.497 11h-.006c-2.913 0-5.677-1.684-6.464-3.927.583-1.711 2.311-3.096 4.388-3.67a3.674 3.674 0 0 0-1.597 3.028c0 2.031 1.651 3.682 3.682 3.682s3.682-1.646 3.682-3.67A3.691 3.691 0 0 0 9.58 3.4c2.036.564 3.748 1.919 4.392 3.643C13.199 9.304 10.431 11 7.497 11z"/></symbol><symbol viewBox="0 0 2300 2300" id="file-cabinet-padless" xmlns="http://www.w3.org/2000/svg"><path d="M199.5 50v2200h1900V50h-1900zm1800 2100h-1700V1150h1700v1000zm0-1100h-1700V150h1700v900zm-600 300h-500v100h500v-100zm0-1000h-500v100h500V350z"/></symbol><symbol viewBox="0 0 23 23" id="folder-close" xmlns="http://www.w3.org/2000/svg"><path d="M9.707 4l-1-1H1v17h21V4H9.707zM21 19H2V8h19v11zm0-12H2V4h6.293l1 1H21v2z"/></symbol><symbol viewBox="0 0 15 15" id="folder-close--s" xmlns="http://www.w3.org/2000/svg"><path d="M6.707 3l-1-1H0v12h14V3H6.707zM13 13H1V6h12v7zm0-8H1V3h4.293l1 1H13v1z"/></symbol><symbol viewBox="0 0 2300 2300" id="funnel" xmlns="http://www.w3.org/2000/svg"><path d="M20.5 289.6l980 820v900l400-270v-630l880-820H20.5zm1280 780v620l-200 140v-760l-810-680h1740l-730 680z"/></symbol><symbol viewBox="0 0 15 15" id="funnel--s" xmlns="http://www.w3.org/2000/svg"><path d="M.127 2L6 6.932v6.135l3-2V6.932L14.873 2H.127zM8 6.466v4.066l-1 .666V6.466L2.873 3h9.254L8 6.466z"/></symbol><symbol viewBox="0 0 2300 2300" id="funnel-fill" xmlns="http://www.w3.org/2000/svg"><path d="M24.8 274.8l940 850v900l400-270.1v-629.9l910.1-850z"/></symbol><symbol viewBox="0 0 15 15" id="funnel-fill--s" xmlns="http://www.w3.org/2000/svg"><path d="M.1 2L6 6.9V13l3-2V6.9L14.9 2H.1z"/></symbol><symbol viewBox="0 0 23 23" id="gear" xmlns="http://www.w3.org/2000/svg"><path d="M14.2 22H8.8v-2.6c-1.1-.4-2.1-.9-3-1.7L3.5 19 .8 14.4l2.3-1.3c-.1-.5-.2-1.1-.2-1.7 0-.5.1-1.1.2-1.7L.8 8.5 3.5 4l2.3 1.3c.9-.8 1.9-1.3 3-1.7V1h5.4v2.6c1.1.4 2.1.9 3 1.7L19.5 4l2.7 4.6-2.3 1.3c.1.6.2 1.1.2 1.7s-.1 1.1-.2 1.7l2.3 1.3-2.7 4.4-2.3-1.3c-.9.8-1.9 1.3-3 1.7V22zm-4.4-1h3.4v-2.3l.4-.1c1.2-.3 2.3-.9 3.2-1.8l.3-.3 2.1 1.2 1.7-2.9-2.1-1.2.1-.4c.2-.6.2-1.2.2-1.8 0-.6-.1-1.2-.2-1.8l-.1-.4L20.9 8l-1.7-2.9L17 6.5l-.3-.3c-.9-.9-2-1.5-3.2-1.8l-.4-.1V2H9.8v2.3l-.4.1c-1.2.4-2.3 1-3.2 1.8l-.2.3-2.1-1.2-1.7 2.9 2.1 1.2-.1.3c-.2.6-.2 1.2-.2 1.8 0 .6.1 1.2.2 1.8l.1.4-2.1 1.2 1.7 2.9L6 16.5l.3.3c.9.9 2 1.5 3.2 1.8l.4.1V21z"/><path d="M13.4 15.9C11 17 8.1 15.9 7 13.5s.1-5.3 2.6-6.4c.6-.3 1.2-.4 1.8-.4v1c-.5 0-1 .1-1.5.3-2 .9-2.9 3.1-2 5 .9 2 3.2 2.8 5.1 2 2-.9 2.9-3.1 2-5-.1-.2-.2-.4-.3-.5l.8-.5c.1.2.3.4.4.7 1.2 2.2 0 5.1-2.5 6.2z"/></symbol><symbol viewBox="0 0 15 15" id="gear--s" xmlns="http://www.w3.org/2000/svg"><path d="M13.5 7.5c0-.4 0-.7-.1-1.1l1.6-.9L13 2l-1.6.9c-.6-.5-1.2-.8-1.9-1.1V0h-4v1.8c-.7.3-1.3.7-1.9 1.1L2 2 0 5.5l1.6.9c-.1.4-.1.7-.1 1.1s0 .7.1 1.1L0 9.5 2 13l1.6-.9c.6.5 1.2.8 1.9 1.1V15h4v-1.8c.7-.2 1.3-.6 1.9-1.1l1.6.9 2-3.5-1.6-.9c.1-.4.1-.7.1-1.1zm.1 2.4l-1 1.7-1.4-.8-.2.3c-.6.6-1.3 1-2.1 1.2l-.4.1V14h-2v-1.6l-.4-.1c-.8-.2-1.5-.6-2.1-1.2l-.3-.3-1.4.8-1-1.7 1.4-.8v-.4c-.1-.4-.2-.8-.2-1.2s.1-.8.2-1.2l.1-.4-1.4-.8 1-1.7 1.4.8.2-.3c.6-.6 1.3-1 2.1-1.2l.4-.1V1h2v1.6l.4.1c.8.2 1.5.6 2.1 1.2l.3.3 1.4-.8 1 1.7-1.4.8.1.4c.1.4.2.8.2 1.2s-.1.8-.2 1.2l-.1.4 1.3.8z"/><path d="M9.3 6.7c.1.3.2.5.2.8 0 1.1-.9 2-2 2s-2-.9-2-2 .9-2 2-2v-1c-1.7 0-3 1.3-3 3s1.3 3 3 3 3-1.3 3-3c0-.6-.2-1.1-.4-1.6l-.8.8z"/></symbol><symbol viewBox="0 0 23 23" id="grab-handle" xmlns="http://www.w3.org/2000/svg"><path d="M6.5 9.5h2v-2h-2v2zm0-6h2v-2h-2v2zm0 12h2v-2h-2v2zm0 6h2v-2h-2v2zm8-12h2v-2h-2v2zm0 12h2v-2h-2v2zm0-20v2h2v-2h-2zm0 14h2v-2h-2v2z"/></symbol><symbol viewBox="0 0 15 15" id="grab-handle--s" xmlns="http://www.w3.org/2000/svg"><path d="M5 3h1V2H5v1zm0 3h1V5H5v1zm0 3h1V8H5v1zm0 3h1v-1H5v1zm4-3h1V8H9v1zm0 3h1v-1H9v1zM9 2v1h1V2H9zm0 4h1V5H9v1z"/></symbol><symbol viewBox="0 0 2300 2300" id="group" xmlns="http://www.w3.org/2000/svg"><path d="M350 350h1000v100h100V250H250v1200h200v-100H350V350zm300 300h1000v100h100V550H550v1200h200v-100H650V650zm200 200v1200h1200V850H850zm1100 1100H950V950h1000v1000z"/></symbol><symbol viewBox="400 -400 2300 2300" id="group-column" xmlns="http://www.w3.org/2000/svg"><path d="M1902.5 1652h300V152h-300v1500zm100-1400h100v1300h-100V252zm-1100 1400h300V152h-300v1500zm100-1400h100v1300h-100V252zm400 1400h300V152h-300v1500zm100-1400h100v1300h-100V252zm-900-400v500h100V-48h1700v400h100v-500h-1900z"/></symbol><symbol viewBox="400 -400 2300 2300" id="group-row" xmlns="http://www.w3.org/2000/svg"><path d="M900.5 100.5v300h1600v-300h-1600zm1500 200h-1400v-100h1400v100zm-1700-400h400v-100h-500v1900h500v-100h-400v-1700zm200 1000h1600v-300h-1600v300zm100-200h1400v100h-1400v-100zm-100 700h1600v-300h-1600v300zm100-200h1400v100h-1400v-100z"/></symbol><symbol viewBox="0 0 2300 2300" id="hand" xmlns="http://www.w3.org/2000/svg"><path d="M1750 399.5c-40 0-70 10-100 30v-50c0-110-90-200-200-200-40 0-80 20-120 40-30-70-100-120-180-120-100 0-190 80-200 180-30-20-60-30-100-30-110 0-200 90-200 200v330c-50-50-130-80-210-80h-90v750c0 410 360 750 800 750s800-340 800-750v-850c0-110-90-200-200-200zm100 1050c0 360-310 650-700 650s-700-290-700-650v-650c110 10 200 100 200 210v330h100v-890c0-50 50-100 100-100s100 50 100 100v660h100v-810c0-50 50-100 100-100s100 50 100 100v800h100v-720c0-50 50-100 100-100s100 50 100 100v730h100v-510c0-50 50-100 100-100s100 50 100 100v850z"/></symbol><symbol viewBox="0 0 2300 2300" id="heart" xmlns="http://www.w3.org/2000/svg"><path d="M1609.5 189.6c-160 0-260 70-370 170l-90 90-90-90c-120-110-210-170-370-170s-310 60-420 170-170 270-170 430 60 300 170 410l880 910 880-910c110-110 170-260 170-420s-60-310-180-420c-110-110-260-170-410-170zm340 940l-810 840-800-840c-90-90-140-210-140-340 0-140 50-270 140-360s220-140 350-140 200 50 290 140l160 160 160-160c100-90 170-140 310-140 130 0 260 50 350 140 90 100 140 220 140 350s-50 260-150 350z"/></symbol><symbol viewBox="0 0 15 15" id="heart--s" xmlns="http://www.w3.org/2000/svg"><path d="M13.7 1.8C12.9 1 11.8.5 10.6.5 9.5.5 8.8 1 8 1.8l-.5.5-.6-.5C6.1 1 5.4.5 4.3.5 3.1.5 2.1.9 1.2 1.8.4 2.5 0 3.6 0 4.8s.4 2.3 1.2 3l6.2 6.5 6.3-6.5C14.5 7 15 6 15 4.8s-.4-2.2-1.3-3zM13 7.1l-5.6 5.7-5.5-5.7C1.3 6.5 1 5.7 1 4.8c0-.9.3-1.7.9-2.3.6-.6 1.5-1 2.3-1 .8 0 1.3.3 2 1l1.2 1.2 1.2-1.2c.6-.6 1.1-1 2-1 .9 0 1.7.3 2.3 1 .6.6 1 1.5 1 2.3.1.9-.2 1.7-.9 2.3z"/></symbol><symbol viewBox="0 0 23 23" id="home" xmlns="http://www.w3.org/2000/svg"><path d="M20 20h-8v-6H9v6H3V8.1l8.9-6.7L20 8.1V20zm-7-1h6V8.5l-7.1-5.9-7.9 6V19h4v-6h5v6z"/></symbol><symbol viewBox="0 0 15 15" id="home--s" xmlns="http://www.w3.org/2000/svg"><path d="M7.5-.2L1 5.3V14h4v-4h2v4h7V5.3L7.5-.2zM13 13H8V9H4v4H2V5.7l5.5-4.6L13 5.7V13z"/></symbol><symbol viewBox="0 0 2300 2300" id="home-padless" xmlns="http://www.w3.org/2000/svg"><path d="M1199.5-.5l-1100 830v1470h700v-710h400v710h1000v-1470l-1000-830zm900 2200h-800v-700h-600v700h-500v-1340l1000-760 900 760v1340z"/></symbol><symbol viewBox="0 0 2300 2300" id="import" xmlns="http://www.w3.org/2000/svg"><path d="M1745 1850H445V550h900V450H345v1500h1500V950h-100v900zM845 650v800h690l-290-330 10 10 700-700-80-80-690 700-340-400zm470 700H945V930l170 200 200 220z"/></symbol><symbol viewBox="0 0 23 23" id="info-circle" xmlns="http://www.w3.org/2000/svg"><path d="M10.6 10H9v1h1.6v6.1h1.7V10h-1.7zm.9-8C6.3 2 2 6.3 2 11.5S6.3 21 11.5 21s9.5-4.3 9.5-9.5S16.7 2 11.5 2zm0 18C6.8 20 3 16.2 3 11.5S6.8 3 11.5 3 20 6.8 20 11.5 16.2 20 11.5 20zm-.9-12.5h1.7V6h-1.7v1.5z"/></symbol><symbol viewBox="0 0 15 15" id="info-circle--s" xmlns="http://www.w3.org/2000/svg"><path d="M6.8 6H5.5v1h1.2v4.8h1.5V6H6.8zm0-1.5h1.5V3H6.8v1.5zM7.5 0C3.4 0 0 3.4 0 7.5S3.4 15 7.5 15 15 11.6 15 7.5 11.6 0 7.5 0zm0 14C3.9 14 1 11.1 1 7.5S3.9 1 7.5 1 14 3.9 14 7.5 11.1 14 7.5 14z"/></symbol><symbol viewBox="0 0 23 23" id="info-circle-fill" xmlns="http://www.w3.org/2000/svg"><path d="M11.5 2.5c-5 0-9 4-9 9s4 9 9 9 9-4 9-9-4-9-9-9zm.9 14.6h-1.7V11H9v-1h3.4v7.1zm0-9.6h-1.7V6h1.7v1.5z"/></symbol><symbol viewBox="0 0 15 15" id="info-circle-fill--s" xmlns="http://www.w3.org/2000/svg"><path d="M7.5.5c-3.9 0-7 3.1-7 7s3.1 7 7 7 7-3.1 7-7-3.1-7-7-7zm.7 11.3H6.8V7H5.5V6h2.8v5.8zm0-7.3H6.8V3h1.5v1.5z"/></symbol><symbol viewBox="0 0 2300 2300" id="jump-column" xmlns="http://www.w3.org/2000/svg"><path d="M789.6 820.3v1300h500v-1120l-180-180h-320zm400 1200h-300v-1100h300v1100zm510-900l410-500h-400c-100-250-380-440-660-440-240 0-470 160-570 300l80 60c100-130 300-260 490-260 240 0 450 160 550 340h-310l410 500zm200-400l-200 250-200-250h400zm-110 1300h-300v-820l-100-100v1020h500v-880l-100 100v680zm-1600 100h500v-1300h-500v1300zm100-1200h300v1100h-300v-1100z"/></symbol><symbol viewBox="400 -400 2300 2300" id="list" xmlns="http://www.w3.org/2000/svg"><path d="M699.5 100.5h100V.5h-100v100zm0 700h100v-100h-100v100zm0 700h100v-100h-100v100zm300 0h1400v-100h-1400v100zm0-1500v100h1400V.5h-1400zm0 800h1400v-100h-1400v100z"/></symbol><symbol viewBox="0 0 2000 2000" id="list--s" xmlns="http://www.w3.org/2000/svg"><path d="M149.5 549.5h100v-100h-100v100zm0 500h100v-100h-100v100zm0 500h100v-100h-100v100zm300-500h1400v-100h-1400v100zm0-600v100h1400v-100h-1400zm0 1100h1400v-100h-1400v100z"/></symbol><symbol viewBox="0 0 23 23" id="lock-close" xmlns="http://www.w3.org/2000/svg"><path d="M7 4.5C7 3.1 8.1 2 9.6 2h3.9C14.9 2 16 3.1 16 4.5V9h1V4.5c0-2-1.6-3.5-3.5-3.5h-4C7.6 1 6 2.6 6 4.5V9h1V4.5zM3 10v12h17V10H3zm16 11H4V11h15v10z"/></symbol><symbol viewBox="0 0 23 23" id="lock-open" xmlns="http://www.w3.org/2000/svg"><path d="M20 22H3V10h17v12zM4 21h15V11H4v10zM17 9h-1V4.5C16 3.1 14.9 2 13.5 2H9.6C8.1 2 7 3.1 7 4.5H6C6 2.6 7.6 1 9.5 1h3.9c2 0 3.5 1.6 3.5 3.5V9z"/></symbol><symbol viewBox="0 0 612 792" id="marker" xmlns="http://www.w3.org/2000/svg"><path d="M130.6 433.4l175.5 272.5 175.5-272.5c3.7-3.7 48.5-70.9 48.5-119.5 0-126.9-100.8-227.7-224-227.7-126.9 0-224 100.8-224 224-3.7 52.3 44.8 119.5 48.5 123.2zm175.5-309.8c104.5 0 186.7 82.1 186.7 190.4 0 33.6-33.6 85.9-41.1 100.8l-145.6 224-141.9-224c-11.2-18.7-44.8-70.9-44.8-104.5-3.7-104.6 78.4-186.7 186.7-186.7z"/></symbol><symbol viewBox="0 0 2300 2500" id="marker-fill-padless" xmlns="http://www.w3.org/2000/svg"><path d="M1154.9 14.7c-500 0-900 390-900 900 0 200 200 510 200 510l700 1060 690-1060s200-310 200-500c10-510-390-910-890-910z"/></symbol><symbol viewBox="400 -400 2300 2300" id="marquee-select" xmlns="http://www.w3.org/2000/svg"><path d="M1530.2-154.9h-300v100h300v-100zm400 300h100v-300h-300v100h200v200zm0 400h100v-200h-100v200zm-1100-200h-100v300h100v-300zm1120 809.9l370-370-1190-390 390 1190 360-350 420 420 70-80-420-420zm-380 250l-280-850 850 280-570 570zm-840-1259.9h100v-200h200v-100h-300v300zm100 700h-100v300h300v-100h-200v-200z"/></symbol><symbol viewBox="400 -400 2300 2300" id="marquee-zoom" xmlns="http://www.w3.org/2000/svg"><path d="M732.2 882.7h-100v300h300v-100h-200v-200zm0-500h-100v300h100v-300zm1100-200h100v-300h-300v100h200v200zm320 1040c80-90 130-220 130-350 0-300-240-540-540-540s-540 240-540 540 240 540 540 540c130 0 250-50 340-120l330 330 60-80-320-320zm-420 90c-240 0-440-200-440-440s200-440 440-440 440 200 440 440-200 440-440 440zm-1100-1130h100v-200h200v-100h-300v300zm800-300h-300v100h300v-100z"/></symbol><symbol viewBox="0 0 2300 2300" id="menu-padless" xmlns="http://www.w3.org/2000/svg"><path d="M99.5 1499.5h2100v-100H99.5v100zm0 600h2100v-100H99.5v100zm0-1200h2100v-100H99.5v100zm0-700v100h2100v-100H99.5z"/></symbol><symbol viewBox="0 0 1500 1500" id="minus" xmlns="http://www.w3.org/2000/svg"><path d="M1399.5 799.5v-100H99.5v100z"/></symbol><symbol viewBox="0 0 1500 1500" id="minus--s" xmlns="http://www.w3.org/2000/svg"><path d="M1399.5 799.5v-100H99.5v100z"/></symbol><symbol viewBox="0 0 2300 2300" id="news" xmlns="http://www.w3.org/2000/svg"><path d="M450 250v300H250v1200c20 170 170 300 350 300h1100c180 0 320-130 350-300V250H450zm1500 1450c0 140-110 250-250 250H600c-140 0-250-110-250-250V650h1400v1100h100V550H550V350h1400v1350z"/></symbol><symbol viewBox="0 0 2300 2300" id="object-plus" xmlns="http://www.w3.org/2000/svg"><path d="M550 1099.5h100v-400h400v-100H650v-400H550v400H150v100h400v400zm700-800v100h800v1600H450v-800H350v900h1800v-1800h-900z"/></symbol><symbol viewBox="0 0 2300 2300" id="open-new" xmlns="http://www.w3.org/2000/svg"><path d="M599.5 299.5v1400h1400v-1400h-1400zm1300 1300h-1200v-1200h1200v1200zm-1500-1000h-100v1400h1400v-100h-1300v-1300z"/></symbol><symbol viewBox="0 0 1500 1500" id="open-new--s" xmlns="http://www.w3.org/2000/svg"><path d="M399.5 199.5v900h900v-900h-900zm800 800h-700v-700h700v700zm-900-600h-100v900h900v-100h-800v-800z"/></symbol><symbol viewBox="-532.5 146.5 500 500" id="paperclip" xmlns="http://www.w3.org/2000/svg"><path d="M-203.3 329.6v198c0 43.7-35.5 79.2-79.2 79.2s-79.2-35.5-79.2-79.2V235.8c0-27.3 22.2-49.5 49.5-49.5s49.5 22.2 49.5 49.5V508c0 10.9-8.9 19.8-19.8 19.8s-19.8-8.9-19.8-19.8V329.6h-19.8V508c0 21.8 17.8 39.6 39.6 39.6s39.6-17.8 39.6-39.6V235.8c0-38.2-31.1-69.3-69.3-69.3s-69.3 31.1-69.3 69.3v291.8c0 54.6 44.4 99 99 99s99-44.4 99-99v-198h-19.8z"/></symbol><symbol viewBox="-532.5 146.5 500 500" id="paperclip-angle" xmlns="http://www.w3.org/2000/svg"><path d="M-132.7 320.7c26.1-26.1 26.1-68.5 0-94.6-26.1-26.1-68.5-26.1-94.6 0l-63.5 63.5-134.1 134.1c-18 18-27.9 42-27.9 67.4 0 25.5 9.9 49.4 27.9 67.4s41.9 27.9 67.4 27.9 49.4-9.9 67.4-27.9L-156 424.4l-14.1-14.1-134.1 134.1c-28.5 28.5-78.1 28.5-106.6 0-14.2-14.2-22.1-33.1-22.1-53.3 0-20.1 7.8-39.1 22.1-53.3l50.1-50.1 147.5-147.5c18.3-18.3 48-18.3 66.3 0s18.3 48 0 66.3L-331.3 491c-7 7-19.1 7-26.1 0-7.2-7.2-7.2-18.9 0-26.1L-236.5 344l-14.1-14.1-120.9 120.9c-15 15-15 39.4 0 54.4 7.3 7.3 16.9 11.3 27.2 11.3s19.9-4 27.2-11.3l158.3-158.3 26.1-26.2z"/></symbol><symbol viewBox="400 -400 2300 2300" id="pause-circle" xmlns="http://www.w3.org/2000/svg"><path d="M1550.5-299.5c-580 0-1050 470-1050 1050s470 1050 1050 1050 1050-470 1050-1050-470-1050-1050-1050zm0 2000c-520 0-950-430-950-950s430-950 950-950 950 430 950 950-430 950-950 950zm-220-500h100v-900h-100v900zm300 0h100v-900h-100v900z"/></symbol><symbol viewBox="0 0 15 15" id="pause-circle--s" xmlns="http://www.w3.org/2000/svg"><path d="M7.5-.034C3.346-.034-.034 3.346-.034 7.5s3.38 7.533 7.534 7.533 7.533-3.379 7.533-7.533S11.654-.034 7.5-.034zm0 14.001c-3.565 0-6.466-2.901-6.466-6.467S3.935 1.034 7.5 1.034s6.467 2.901 6.467 6.466-2.902 6.467-6.467 6.467zM5 10h2V5H5v5zm3 0h2V5H8v5z"/></symbol><symbol viewBox="0 0 2300 2300" id="pencil" xmlns="http://www.w3.org/2000/svg"><path d="M1970.1 599.4l-1060 1050-300-300 1010-990-70-70-1040 1030-250 690 670-240 1110-1100-70-70zm-1550 1240l140-400 260 260-400 140z"/></symbol><symbol viewBox="0 0 1500 1500" id="pencil--s" xmlns="http://www.w3.org/2000/svg"><path d="M1304.6 369.7l-590 590-200-200 560-550-70-70-700 690-190 530 520-180 750-730-80-80zm-720 720l-310 110 110-310 60-60 200 200-60 60z"/></symbol><symbol viewBox="0 0 23 23" id="person" xmlns="http://www.w3.org/2000/svg"><path d="M9.6 12.1c.6.2 1.3.4 1.9.4 2.1 0 4.1-1.3 4.9-3.3 1-2.7-.3-5.7-3-6.8-2.7-1.1-5.7.3-6.8 3-1 2.6.3 5.7 3 6.7zM7.5 5.7C8.2 4 9.8 3 11.5 3c.5 0 1 .1 1.5.3 2.2.8 3.3 3.3 2.4 5.5-.9 2.2-3.3 3.3-5.5 2.4-2.1-.8-3.2-3.3-2.4-5.5zm11 8.3h-14C3.1 14 2 15.1 2 16.5V21h1v-4.5c0-.8.7-1.5 1.5-1.5h14c.8 0 1.5.7 1.5 1.5V21h1v-4.5c0-1.4-1.1-2.5-2.5-2.5z"/></symbol><symbol viewBox="0 0 15 15" id="person--s" xmlns="http://www.w3.org/2000/svg"><path d="M11.5 9h-8C2.1 9 1 10.1 1 11.5V14h1v-2.5c0-.8.7-1.5 1.5-1.5h8c.8 0 1.5.7 1.5 1.5V14h1v-2.5c0-1.4-1.1-2.5-2.5-2.5zm-4-1C9.4 8 11 6.4 11 4.5S9.4 1 7.5 1 4 2.6 4 4.5 5.6 8 7.5 8zm0-6C8.9 2 10 3.1 10 4.5S8.9 7 7.5 7 5 5.9 5 4.5 6.1 2 7.5 2z"/></symbol><symbol viewBox="0 0 23 23" id="person-group" xmlns="http://www.w3.org/2000/svg"><path d="M13.9 11.7c.5.2 1.1.3 1.6.3.6 0 1.2-.1 1.8-.4 1.1-.5 1.9-1.4 2.4-2.5.4-1.1.4-2.3-.1-3.4s-1.4-1.9-2.5-2.4c-1.1-.4-2.3-.4-3.4.1s-1.9 1.4-2.4 2.5c-.4 1.1-.4 2.3.1 3.4s1.3 2 2.5 2.4zm-1.7-5.5c.3-.9 1-1.6 1.9-1.9.4-.2.9-.3 1.4-.3.4 0 .9.1 1.3.2.9.3 1.6 1 1.9 1.9.4.9.4 1.8.1 2.7-.3.9-1 1.6-1.9 1.9-.9.4-1.8.4-2.7.1s-1.6-1-1.9-1.9c-.4-.8-.4-1.8-.1-2.7zM4.6 8.7c.4.2.9.3 1.4.3.5 0 1.1-.1 1.6-.3 1-.4 1.7-1.2 2.1-2.2.4-1 .4-2.1-.1-3.1-.4-1-1.2-1.7-2.2-2.1-1-.4-2.1-.4-3.1.1-1 .4-1.7 1.2-2.1 2.2-.4 1-.4 2.1.1 3.1.5.9 1.3 1.6 2.3 2zM3.2 3.9c.3-.7.9-1.3 1.6-1.7.4-.1.8-.2 1.2-.2.4 0 .7.1 1.1.2.7.3 1.3.9 1.7 1.6.3.7.3 1.5.1 2.3-.4.7-1 1.3-1.7 1.6-.7.4-1.5.4-2.3.1-.7-.3-1.3-.9-1.6-1.6-.4-.7-.4-1.5-.1-2.3zM20.5 14h-10C9.1 14 8 15.1 8 16.5V20h1v-3.5c0-.8.7-1.5 1.5-1.5h10c.8 0 1.5.7 1.5 1.5V20h1v-3.5c0-1.4-1.1-2.5-2.5-2.5zM8 11H2.5C1.1 11 0 12.1 0 13.5V18h1v-4.5c0-.8.7-1.5 1.5-1.5H8v-1z"/></symbol><symbol viewBox="0 0 15 15" id="person-group--s" xmlns="http://www.w3.org/2000/svg"><path d="M15 14h-1v-2.5c0-.3-.2-.5-.5-.5h-6c-.3 0-.5.2-.5.5V14H6v-2.5c0-.8.7-1.5 1.5-1.5h6c.8 0 1.5.7 1.5 1.5V14zM1 12H0V9.5C0 8.7.7 8 1.5 8H6v1H1.5c-.3 0-.5.2-.5.5V12zm9.5-3c-1.7 0-3-1.3-3-3s1.3-3 3-3 3 1.3 3 3-1.3 3-3 3zm0-5c-1.1 0-2 .9-2 2s.9 2 2 2 2-.9 2-2-.9-2-2-2zM4 7C2.3 7 1 5.7 1 4s1.3-3 3-3 3 1.3 3 3-1.3 3-3 3zm0-5c-1.1 0-2 .9-2 2s.9 2 2 2 2-.9 2-2-.9-2-2-2z"/></symbol><symbol viewBox="0 0 23 23" id="person-padless" xmlns="http://www.w3.org/2000/svg"><path d="M9.3 11.6c.7.3 1.4.4 2.2.4 2.4 0 4.7-1.5 5.6-3.8 1.2-3.1-.3-6.6-3.4-7.8-1.5-.6-3.1-.5-4.6.1S6.5 2.3 5.9 3.8s-.5 3.1.1 4.6c.7 1.5 1.8 2.6 3.3 3.2zM6.8 4.2C7.3 2.9 8.3 2 9.5 1.4c.6-.3 1.3-.4 2-.4.6 0 1.2.1 1.8.3 2.6 1 3.8 3.9 2.8 6.5s-3.9 3.8-6.5 2.8C8.4 10.2 7.5 9.2 6.9 8c-.5-1.2-.5-2.6-.1-3.8zM19.5 14h-16C2.1 14 1 15.1 1 16.5V23h1v-6.5c0-.8.7-1.5 1.5-1.5h16c.8 0 1.5.7 1.5 1.5V23h1v-6.5c0-1.4-1.1-2.5-2.5-2.5z"/></symbol><symbol id="person-plus" viewBox="0 0 23 23" xmlns="http://www.w3.org/2000/svg"><style>.epst0{fill:#010101}</style><path class="epst0" d="M10.5 12.5c.6 0 1.3-.1 1.9-.4 1.3-.5 2.3-1.5 2.9-2.8l-.9-.3c-.5 1-1.3 1.8-2.3 2.2-2.2.9-4.7-.2-5.6-2.4-.8-2.2.3-4.7 2.5-5.5 1.6-.6 3.5-.2 4.7 1.1l.7-.7c-1.5-1.6-3.7-2.1-5.8-1.3-2.7 1-4 4.1-3 6.8.8 2 2.8 3.3 4.9 3.3zm7 1.5h-14C2.1 14 1 15.1 1 16.5V21h1v-4.5c0-.8.7-1.5 1.5-1.5h14c.8 0 1.5.7 1.5 1.5V21h1v-4.5c0-1.4-1.1-2.5-2.5-2.5zM19 6V2h-1v4h-4v1h4v4h1V7h4V6h-4z"/></symbol><symbol viewBox="0 0 15 15" id="person-plus--s" xmlns="http://www.w3.org/2000/svg"><path d="M6.5 8c1.1 0 2.2-.6 2.9-1.5l-.9-.6c-.4.7-1.2 1.1-2 1.1C5.1 7 4 5.9 4 4.5S5.1 2 6.5 2c.3 0 .5 0 .7.1l.3-1c-.3 0-.6-.1-1-.1C4.6 1 3 2.6 3 4.5S4.6 8 6.5 8zm4 1h-8C1.1 9 0 10.1 0 11.5V14h1v-2.5c0-.8.7-1.5 1.5-1.5h8c.8 0 1.5.7 1.5 1.5V14h1v-2.5c0-1.4-1.1-2.5-2.5-2.5zM12 3V0h-1v3H8v1h3v3h1V4h3V3h-3z"/></symbol><symbol viewBox="0 0 2300 2300" id="play-circle" xmlns="http://www.w3.org/2000/svg"><path d="M699.5 1729.5l1110-580-1110-580v1160zm100-1000l790 420-790 420v-840zm350-630c-580 0-1050 470-1050 1050s470 1050 1050 1050 1050-470 1050-1050-470-1050-1050-1050zm0 2000c-520 0-950-430-950-950s430-950 950-950 950 430 950 950-430 950-950 950z"/></symbol><symbol viewBox="0 0 1500 1500" id="play-circle--s" xmlns="http://www.w3.org/2000/svg"><path d="M750.5.5C338 .5.5 338 .5 750.5s337.5 750 750 750 750-337.5 750-750S1163 .5 750.5.5zm0 1396.9c-356.2 0-646.9-290.6-646.9-646.9s290.6-646.9 646.9-646.9 646.9 290.6 646.9 646.9-290.7 646.9-646.9 646.9zm-234.4-318.8l618.7-328.1-618.7-328.1v656.2z"/></symbol><symbol viewBox="0 0 2300 2300" id="plus" xmlns="http://www.w3.org/2000/svg"><path d="M1199.5 1099.5v-900h-100v900h-900v100h900v900h100v-900h900v-100z"/></symbol><symbol viewBox="0 0 1500 1500" id="plus--s" xmlns="http://www.w3.org/2000/svg"><path d="M799.5 699.5v-600h-100v600h-600v100h600v600h100v-600h600v-100z"/></symbol><symbol viewBox="0 0 2300 2300" id="print" xmlns="http://www.w3.org/2000/svg"><path d="M550 1999.5h1200v-400H550v400zm100-300h1000v200H650v-200zm0-1300h1000v200h100v-300H550v300h100v-200zm700 500v100h100v-100h-100zm300 100h100v-100h-100v100zm-1500-300v1100h300v-100H250v-900h1800v900h-200v100h300v-1100H150z"/></symbol><symbol viewBox="0 0 23 23" id="question-circle" xmlns="http://www.w3.org/2000/svg"><path d="M10.958 17.636h1.5v-1.5h-1.5v1.5zM11.763 2c-5.238 0-9.5 4.262-9.5 9.5s4.262 9.5 9.5 9.5 9.5-4.262 9.5-9.5-4.262-9.5-9.5-9.5zm0 18c-4.687 0-8.5-3.813-8.5-8.5 0-4.687 3.813-8.5 8.5-8.5 4.687 0 8.5 3.813 8.5 8.5 0 4.687-3.814 8.5-8.5 8.5zm-.006-14.364c-1.906 0-2.791.849-3.196 1.56-.463.809-.463 1.68-.463 2.099h1.5c0-.312 0-.892.265-1.355.309-.541.928-.804 1.894-.804.806 0 1.414.171 1.749.486.28.273.41.569.422.911-.034 1.072-.522 1.591-1.287 2.284-.65.641-1.633 1.608-1.634 3.569h1.5c0-1.333.604-1.926 1.163-2.479.718-.649 1.699-1.538 1.758-3.374a2.815 2.815 0 0 0-.886-1.996c-.638-.598-1.575-.901-2.785-.901z"/></symbol><symbol viewBox="0 0 15 15" id="question-circle--s" xmlns="http://www.w3.org/2000/svg"><path d="M6.589 12.5h1.5V11h-1.5v1.5zM7.5 0C3.364 0 0 3.364 0 7.5S3.364 15 7.5 15 15 11.636 15 7.5 11.636 0 7.5 0zm0 14C3.916 14 1 11.084 1 7.5S3.916 1 7.5 1 14 3.916 14 7.5 11.084 14 7.5 14zM7.496 2.99c-1.519 0-2.23.688-2.561 1.265-.371.65-.371 1.337-.371 1.667h1.5c0-.216 0-.619.174-.923.072-.126.29-.509 1.258-.509.548 0 .971.114 1.181.312.175.17.252.347.26.543-.023.73-.351 1.078-.91 1.584-.479.472-1.281 1.261-1.281 2.81l1.5.001c0-.922.405-1.32.811-1.72.531-.48 1.334-1.207 1.38-2.675a2.307 2.307 0 0 0-.723-1.628c-.515-.483-1.261-.727-2.218-.727z"/></symbol><symbol viewBox="0 0 23 23" id="question-circle-padless" xmlns="http://www.w3.org/2000/svg"><path d="M10.5 19.5h2v-2h-2v2zM11.485 0C5.152 0 0 5.152 0 11.484 0 17.817 5.152 22.97 11.485 22.97c6.326 0 11.473-5.152 11.473-11.486C22.958 5.152 17.812 0 11.485 0zm0 21.97C5.704 21.97 1 17.266 1 11.484 1 5.703 5.704 1 11.485 1c5.774 0 10.473 4.703 10.473 10.484 0 5.782-4.698 10.486-10.473 10.486zm-.024-17.694c-2.43 0-3.55 1.067-4.062 1.962-.585 1.026-.585 2.147-.585 2.686h1.5c0-.441 0-1.262.389-1.942.463-.811 1.366-1.206 2.759-1.206 1.145 0 2.021.253 2.522.724.42.41.624.874.642 1.412-.049 1.536-.736 2.269-1.801 3.233-.841.829-2.112 2.081-2.113 4.6h1.5c0-1.892.885-2.763 1.642-3.51.928-.839 2.197-1.987 2.271-4.322a3.527 3.527 0 0 0-1.105-2.497c-.806-.756-2.003-1.14-3.559-1.14z"/></symbol><symbol viewBox="0 0 2300 2300" id="refresh" xmlns="http://www.w3.org/2000/svg"><path d="M1980.5 1205.3h-100c10 40 10 80 10 120 0 410-330 740-740 740v50-50c-410 0-740-330-740-740 0-350 250-650 590-720v420l630-470-630-420v360c-390 80-690 420-690 830 0 460 370 840 840 840 460 0 840-380 840-840 0-40-10-80-10-120zm-880-880l360 230-360 270v-500z"/></symbol><symbol viewBox="0 0 2300 2300" id="remove" xmlns="http://www.w3.org/2000/svg"><path d="M1990.5 389.5l-80-80-760 770-760-770-80 80 770 760-770 760 80 80 760-770 760 770 80-80-770-760z"/></symbol><symbol viewBox="0 0 1500 1500" id="remove--s" xmlns="http://www.w3.org/2000/svg"><path d="M1334.8 234.7l-70-70.1-519.9 510.1-510-510.1-70 70.1 509.9 519.9-509.9 510.1 70 70 510-510.1 519.9 510.1 70-70-509.9-510.1z"/></symbol><symbol viewBox="0 0 23 23" id="scale" xmlns="http://www.w3.org/2000/svg"><path d="M11 3.3h1v16.5h-1z"/><path d="M5 3h13v1H5zm0 16h13v1H5zm3.8-4H1.3L5 4.8 8.8 15zm-6-1h4.5L5 7.4 2.8 14zm19 1h-7.5L18 4.8 21.8 15zm-6-1h4.5L18 7.4 15.8 14z"/></symbol><symbol viewBox="0 0 23 23" id="search" xmlns="http://www.w3.org/2000/svg"><path d="M20 19.3l-4.9-4.9c1.2-1.3 1.9-3.1 1.9-5 0-4-3.4-7.4-7.5-7.4S2 5.4 2 9.5 5.4 17 9.5 17c1.9 0 3.6-.7 4.9-1.8l4.9 4.9.7-.8zM3 9.5C3 5.9 5.9 3 9.5 3S16 5.9 16 9.5 13.1 16 9.5 16 3 13.1 3 9.5z"/></symbol><symbol viewBox="0 0 1500 1500" id="search--s" xmlns="http://www.w3.org/2000/svg"><path d="M1000.5 925.5c70-90 100-190 100-310 0-280-220-510-500-510s-500 220-500 510c0 280 230 490 500 490 120 0 230-40 320-110l410 400 70-70-400-400zm-390 90c-220 0-410-170-410-400s180-410 410-410 400 180 400 410-180 400-400 400z"/></symbol><symbol viewBox="0 0 2300 2300" id="search-list" xmlns="http://www.w3.org/2000/svg"><path d="M310.4 1199.5h-200v100h200v-100zm300 400h-500v100h500v-100zm-500 500h900v-100h-900v100zm1630-740c110-120 170-290 170-460 0-390-320-700-700-700s-700 310-700 700 320 700 700 700c170 0 330-60 460-170l450 450 70-70-450-450zm-530 140c-330 0-600-270-600-600s270-600 600-600 600 270 600 600c10 330-260 600-600 600z"/></symbol><symbol viewBox="0 0 2300 2300" id="search-padless" xmlns="http://www.w3.org/2000/svg"><path d="M2230.5 2169.5l-610-680c140-160 220-360 220-590 0-490-390-880-890-880-490 0-880 390-880 880s400 890 890 890c200 0 390-70 540-190l630 680 100-110zm-2060-1270c0-430 350-780 780-780 440 0 790 340 790 780s-350 790-780 790c-440 0-790-350-790-790z"/></symbol><symbol viewBox="0 0 2300 2300" id="share" xmlns="http://www.w3.org/2000/svg"><path d="M1219.5 299.5l370 370-670 670 70 70 670-670 340 360v-800h-780zm680 550l-210-220-230-230h440v450zm-200 1050h-1300v-1300h700v-100h-800v1500h1500v-800h-100v700z"/></symbol><symbol viewBox="-452 373 23 23" id="star" xmlns="http://www.w3.org/2000/svg"><path d="M-440.343 378.527l1.21 3.778.223.695h4.926l-3.384 2.555-.567.428.218.676 1.271 3.95-3.305-2.421-.594-.435-.592.438-3.227 2.386 1.275-3.914.222-.681-.574-.429-3.412-2.552h4.878l.223-.695 1.209-3.779m0-3.28l-2.162 6.753h-7.155l5.819 4.353-2.243 6.886 5.74-4.244 5.792 4.244-2.215-6.886L-431 382h-7.181l-2.162-6.753z"/></symbol><symbol viewBox="-500 373 23 23" id="star-fill" xmlns="http://www.w3.org/2000/svg"><path d="M-484.766 386.353l2.215 6.886-5.792-4.244-5.74 4.244 2.243-6.886-5.819-4.353h7.155l2.162-6.753 2.162 6.753h7.18l-5.766 4.353z"/></symbol><symbol viewBox="400 -400 2300 2300" id="stop-circle" xmlns="http://www.w3.org/2000/svg"><path d="M1132.5 1202.5h800v-800h-800v800zm420-1500c-580 0-1050 470-1050 1050s470 1050 1050 1050 1050-470 1050-1050-470-1050-1050-1050zm0 2000c-520 0-950-430-950-950s430-950 950-950 950 430 950 950-430 950-950 950z"/></symbol><symbol viewBox="-294 385 23 23" id="style-box" xmlns="http://www.w3.org/2000/svg"><path d="M-273 394v-7h-19v19h19v-12zm-1-6v5h-5v-5h5zm-6 0v5h-5v-5h5zm0 11h-5v-5h5v5zm-11-11h5v5h-5v-5zm0 6h5v5h-5v-5zm0 11v-5h5v5h-5zm6 0v-5h5v5h-5zm11 0h-5v-5h5v5zm-5-6v-5h5v5h-5z"/></symbol><symbol viewBox="0 0 23 23" id="style-box-bottom-left" xmlns="http://www.w3.org/2000/svg"><path d="M15 2H2v19h19V2h-6zm-1 1v5H9V3h5zm0 11H9V9h5v5zM3 3h5v5H3V3zm0 6h5v5H3V9zm6 11v-5h5v5H9zm11 0h-5v-5h5v5zm0-6h-5V9h5v5zm-5-6V3h5v5h-5z"/></symbol><symbol viewBox="0 0 23 23" id="style-box-bottom-mid" xmlns="http://www.w3.org/2000/svg"><path d="M15 2H2v19h19V2h-6zm-1 1v5H9V3h5zm0 11H9V9h5v5zM3 3h5v5H3V3zm0 6h5v5H3V9zm0 11v-5h5v5H3zm17 0h-5v-5h5v5zm0-6h-5V9h5v5zm-5-6V3h5v5h-5z"/></symbol><symbol viewBox="0 0 23 23" id="style-box-bottom-right" xmlns="http://www.w3.org/2000/svg"><path d="M15 2H2v19h19V2h-6zm-1 1v5H9V3h5zm0 11H9V9h5v5zM3 3h5v5H3V3zm0 6h5v5H3V9zm0 11v-5h5v5H3zm6 0v-5h5v5H9zm11-6h-5V9h5v5zm-5-6V3h5v5h-5z"/></symbol><symbol viewBox="0 0 23 23" id="style-box-middle-left" xmlns="http://www.w3.org/2000/svg"><path d="M15 2H2v19h19V2h-6zm-1 1v5H9V3h5zm0 11H9V9h5v5zM3 3h5v5H3V3zm0 17v-5h5v5H3zm6 0v-5h5v5H9zm11 0h-5v-5h5v5zm0-6h-5V9h5v5zm-5-6V3h5v5h-5z"/></symbol><symbol viewBox="0 0 23 23" id="style-box-middle-mid" xmlns="http://www.w3.org/2000/svg"><path d="M15 2H2v19h19V2h-6zm-1 1v5H9V3h5zM3 3h5v5H3V3zm0 6h5v5H3V9zm0 11v-5h5v5H3zm6 0v-5h5v5H9zm11 0h-5v-5h5v5zm0-6h-5V9h5v5zm-5-6V3h5v5h-5z"/></symbol><symbol viewBox="0 0 23 23" id="style-box-middle-right" xmlns="http://www.w3.org/2000/svg"><path d="M9 21h12V2H2v19h7zm0-1v-5h5v5H9zM9 9h5v5H9V9zm11 11h-5v-5h5v5zm0-17v5h-5V3h5zm-6 0v5H9V3h5zM3 3h5v5H3V3zm0 6h5v5H3V9zm0 11v-5h5v5H3z"/></symbol><symbol viewBox="0 0 23 23" id="style-box-top-left" xmlns="http://www.w3.org/2000/svg"><path d="M21 15V2H2v19h19v-6zm-1-1h-5V9h5v5zM9 9h5v5H9V9zm11-6v5h-5V3h5zm-6 0v5H9V3h5zM3 9h5v5H3V9zm0 11v-5h5v5H3zm6 0v-5h5v5H9zm6 0v-5h5v5h-5z"/></symbol><symbol viewBox="0 0 23 23" id="style-box-top-mid" xmlns="http://www.w3.org/2000/svg"><path d="M15 2H2v19h19V2h-6zm-1 12H9V9h5v5zM3 3h5v5H3V3zm0 6h5v5H3V9zm0 11v-5h5v5H3zm6 0v-5h5v5H9zm11 0h-5v-5h5v5zm0-6h-5V9h5v5zm-5-6V3h5v5h-5z"/></symbol><symbol viewBox="0 0 23 23" id="style-box-top-right" xmlns="http://www.w3.org/2000/svg"><path d="M15 2H2v19h19V2h-6zm-1 12H9V9h5v5zm0-11v5H9V3h5zM3 3h5v5H3V3zm0 6h5v5H3V9zm0 11v-5h5v5H3zm6 0v-5h5v5H9zm11 0h-5v-5h5v5zm0-6h-5V9h5v5z"/></symbol><symbol viewBox="0 0 2300 2300" id="text-size" xmlns="http://www.w3.org/2000/svg"><path d="M84.7 1569.8h600v-100h-600v100zm400-1100h-100v300h-300v100h300v300h100v-300h300v-100h-300v-300zm1120-100h-170l-10 20s-560 1360-600 1490l100 50c20-60 120-360 240-560h720l230 560 100-30-610-1530zm-410 900c130-400 270-700 310-800h30l310 800h-650z"/></symbol><symbol viewBox="0 0 2300 2300" id="trash" xmlns="http://www.w3.org/2000/svg"><path d="M1799.5 1999.5h-1300v-1300h-100v1400h1500v-1400h-100v1300zm-200-1500v-300h-900v300h-400v100h1700v-100h-400zm-100 0h-700v-200h700v200zm-700 400v900h100v-900h-100zm300 0v900h100v-900h-100zm300 0v900h100v-900h-100z"/></symbol><symbol viewBox="0 0 15 15" id="trash--s" xmlns="http://www.w3.org/2000/svg"><path d="M12 14H3V5H2v10h11V5h-1v9zM10 1H5v1h5V1zM9 3H1v1h13V3H9zm0 3v6h1V6H9zM5 6v6h1V6H5z"/></symbol><symbol viewBox="0 0 1500 1500" id="triangle-fill-down" xmlns="http://www.w3.org/2000/svg"><path d="M299.5 330.5l450 840 450-840z"/></symbol><symbol viewBox="0 0 1500 1500" id="triangle-fill-down--s" xmlns="http://www.w3.org/2000/svg"><path d="M399.5 419.5l350 660 350-660z"/></symbol><symbol viewBox="0 0 28 28" id="triangle-fill-left" xmlns="http://www.w3.org/2000/svg"><path d="M21.85 22.391v-16.8l-15.68 8.4 15.68 8.4z"/></symbol><symbol viewBox="0 0 1500 1500" id="triangle-fill-right" xmlns="http://www.w3.org/2000/svg"><path d="M330.5 299.5v900l840-450z"/></symbol><symbol viewBox="0 0 28 28" id="triangle-fill-up" xmlns="http://www.w3.org/2000/svg"><path d="M22.391 21.85l-8.4-15.68-8.4 15.68h16.8z"/></symbol><symbol viewBox="0 0 1500 1500" id="triangle-fill-up--s" xmlns="http://www.w3.org/2000/svg"><path d="M349.5 1095.4l400-689.9 400 689.9z"/></symbol><symbol viewBox="0 0 2300 2300" id="undo" xmlns="http://www.w3.org/2000/svg"><path d="M1435.5 599.5h-530v-400l-610 500 610 500v-500h530c250 0 470 210 470 450v400c0 240-220 450-480 450h-420v100h420c310 0 580-260 580-550v-400c-.1-300-260.1-550-570-550zm-630 380l-350-280 350-290v570z"/></symbol><symbol viewBox="0 0 23 23" id="upload" xmlns="http://www.w3.org/2000/svg"><path d="M11 3.9V18h1V3.9l5.1 6 .8-.6-6.4-7.4-6.4 7.3.8.6L11 3.9zM2 20v1h19v-1H2z"/></symbol><symbol viewBox="0 0 15 15" id="upload--s" xmlns="http://www.w3.org/2000/svg"><path d="M7 2.9V12h1V2.9l3.2 3.7.8-.7L7.5.8 3.1 5.9l.8.7L7 2.9zM1 13v1h12.8v-1H1z"/></symbol><symbol viewBox="0 0 2300 2300" id="wrench-padless" xmlns="http://www.w3.org/2000/svg"><path d="M1609.9 2304.9l-600-600c-280 50-560-40-760-240-230-230-310-590-200-900l30-70 570 550 400-400-560-570 70-30c310-110 670-30 900 200 200 200 290 490 240 760l600 600-70 70-630-630 10-30c60-250-20-510-210-690-190-190-460-260-720-200l520 520-540 540-540-520c-60 260 10 530 200 720 180 180 440 260 700 210h30l640 640-80 70z"/></symbol></svg>